<svg xmlns="http://www.w3.org/2000/svg" viewBox="0 0 791.79 445.38"><defs><style>.a{fill:#d7ebfd;}.b{fill:#25ad87;}.c{fill:#fea625;}.d{fill:#fea726;}.e{fill:#1a9072;}</style></defs><rect class="a" x="-26.77" y="-29.94" width="876.26" height="503.43"/><path class="b" d="M618.51,211.73,612.4,206q-4.59-4.33-9.19-8.63-3.8-3.54-7.63-7l-6.84-6.39h0c-8.63-8.24-17-16.7-26.63-23.83-26.53-19.77-60.26-18.49-83.81,3.06-21.41,19.59-42.57,39.45-63.95,59.06-3.44,3.15-6.29,7.08-10.77,9-.24,2,1.43,2.71,2.51,3.7q8.22,7.56,16.41,15.15L411.36,471l426.72,7V417Z"/><path class="c" d="M316.38,142a37.32,37.32,0,0,1-37-37.31c0-20.14,17.16-37.17,37.37-37.09a37.2,37.2,0,0,1-.38,74.4Z"/><path class="d" d="M257.93,110.89c-3.89-.31-7.44.41-10.92-.65-2.95-.89-4.79-2.6-4.62-5.86.15-3.07,2.15-4.54,4.88-5.14,6.71-1.47,13.46-.49,20.17,0,3,.22,4.14,2.7,4.13,5.6s-1.52,5-4.4,5.47C264,110.8,260.77,110.74,257.93,110.89Z"/><path class="d" d="M375.63,110.92a86.2,86.2,0,0,1-8.7-.48c-3.11-.44-5.47-2.2-5.43-5.7s2.29-5,5.49-5.62c6.42-1.26,12.82-.31,19.2.12,3,.2,4.22,2.6,4.24,5.51,0,3.23-1.67,5.24-4.76,5.66S379.58,110.74,375.63,110.92Z"/><path class="d" d="M282.51,169.8a5.47,5.47,0,0,1-5.38-7.55c2.55-5.86,5.37-11.66,9.47-16.65,1.93-2.36,4.32-3.88,7.54-2,3,1.72,3.12,4.48,2.2,7.14-2.17,6.25-5.8,11.75-9.63,17.09A4.84,4.84,0,0,1,282.51,169.8Z"/><path class="d" d="M361,85c-3.34.06-5-1.24-6-3.5s-.65-4.65,1.36-6.07c5.37-3.78,10.76-7.62,17-9.84,2.61-.93,5.41-1,7.24,2,1.72,2.75.56,5-1.28,6.94C374.1,80,367.39,83,361,85Z"/><path class="d" d="M375.47,144.65c-3.19-.58-6-2.54-8.91-4.13a101.58,101.58,0,0,1-9.45-5.69c-2.55-1.76-3.2-4.3-1.71-7.18s3.93-4.34,6.72-3c6,2.89,12.17,5.77,17.33,10.19,2,1.69,2.84,3.93,1.62,6.46A5.72,5.72,0,0,1,375.47,144.65Z"/><path class="d" d="M296.89,61.79c-.11,1.78-.43,3.41-2.11,4.15-2.13.92-4.56,1.27-6.36-.41-5.77-5.35-9-12.35-11.65-19.56-.78-2.1.78-4,2.7-5.15s4.72-1.69,6.28.12A50.68,50.68,0,0,1,296.89,61.79Z"/><path class="d" d="M356.27,163.94c.17,2.79-.4,4.25-2,5.12-1.94,1.07-4.24,1.43-5.91,0-6.08-5.32-9.26-12.57-12.17-19.85-.89-2.23.84-4.26,3-5.48s4.4-1.35,5.84.32A54.67,54.67,0,0,1,356.27,163.94Z"/><path class="d" d="M322.32,44.85c0,3.65.71,7.34-.5,11-.95,2.83-2.7,4.18-5.69,4.07a5,5,0,0,1-5-4.38c-1.37-6.82-.6-13.72,0-20.56.24-2.91,2.79-4.24,5.61-4.18a5.3,5.3,0,0,1,5.52,5A81.18,81.18,0,0,1,322.32,44.85Z"/><path class="d" d="M322.35,163.51c0,3.66.68,7.36-.48,11-.9,2.82-2.55,4.32-5.58,4.26s-4.71-2-5.23-4.7c-1.29-6.69-.47-13.44.05-20.13.23-3,2.89-4.2,5.68-4.09,3.06.13,5.2,1.89,5.5,5C322.56,157.72,322.35,160.63,322.35,163.51Z"/><path class="d" d="M351,40a5.17,5.17,0,0,1,5.12,6.57c-1.95,6.88-6,12.71-10.27,18.34-1.72,2.29-4.59,2.24-7,.83s-3.6-4-2.37-6.62c2.7-5.8,5.47-11.61,9.59-16.61A5.85,5.85,0,0,1,351,40Z"/><path class="d" d="M278.3,79.05c.08,4.1-2.83,6.92-6.27,5.88-7-2.12-13.06-6.09-18.82-10.44-2.34-1.76-2-4.67-.45-7,1.41-2.17,3.59-3.54,6.18-2.33,6,2.76,11.88,5.68,17,9.9C277.3,76.17,278.46,77.56,278.3,79.05Z"/><path class="d" d="M258.74,144.64c-3.74.05-5.56-1.18-6.48-3.43s-1-4.72,1.08-6.17c5.76-4,11.46-8.23,18.33-10.26,2.47-.73,4.41.29,5.79,2.34,1.28,1.9,1.58,4.17.08,5.83C272.14,138.94,264.7,141.58,258.74,144.64Z"/><path class="e" d="M718.88,511.53,604,416.13c-6.81-4.89-12.45-11.11-18.61-16.71-11.22-10.2-22.27-20.59-33.48-30.81-16.29-14.85-32.33-30-48.5-45-11.13-10.31-22.32-20.54-33.42-30.88q-26.87-25-53.66-50.14c-4.18-3.9-8.5-7.64-12.76-11.45-6.65-6.12-13-12.61-20-18.29-25.35-20.61-62.59-22.06-89.15,3.49-36,34.6-73.15,68-109.82,101.85v.15l-197,181.74Z"/></svg>